<svg width="34" height="12" viewBox="0 0 34 12" fill="none" xmlns="http://www.w3.org/2000/svg">
<path d="M23.3828 8.7891C24.3513 7.03582 25.2939 5.32882 26.237 3.62181C26.2986 3.64013 26.2832 3.68592 26.2832 3.72256C26.2889 5.71206 26.2947 7.70108 26.2966 9.69106C26.2966 9.78024 26.3563 9.91859 26.2442 9.95234C26.1181 9.98994 25.969 9.98415 25.8381 9.95571C25.7399 9.9345 25.79 9.81495 25.7895 9.74119C25.7866 8.43382 25.7876 7.12597 25.7876 5.8186C25.7876 5.77039 25.7876 5.72266 25.7876 5.67446C25.7746 5.66867 25.7611 5.66289 25.7481 5.65759C24.9571 7.08933 24.1656 8.52059 23.3563 9.9856C22.558 8.5418 21.7757 7.1279 20.9587 5.65035C20.951 5.79112 20.9433 5.86584 20.9433 5.94008C20.9423 7.20695 20.9375 8.47431 20.9481 9.74071C20.95 9.94511 20.8817 9.98271 20.7008 9.97499C20.5386 9.96824 20.4424 9.97017 20.4434 9.7489C20.4535 7.7594 20.4487 5.76943 20.4501 3.77945C20.4501 3.72738 20.4275 3.66809 20.4934 3.60156C21.4528 5.32399 22.4074 7.03775 23.3828 8.7891Z" fill="white"/>
<path d="M15.0688 6.74582C15.0688 5.75469 15.0727 4.76404 15.065 3.77291C15.0636 3.60177 15.0905 3.53959 15.283 3.54103C16.7745 3.55019 18.2661 3.55164 19.7577 3.54007C19.98 3.53814 19.9733 3.63744 19.9819 3.79894C19.9915 3.98694 19.9415 4.04528 19.7442 4.04431C18.447 4.03515 17.1503 4.04817 15.8526 4.03226C15.5933 4.02889 15.5543 4.10939 15.5558 4.34319C15.5659 5.95957 15.5683 7.57595 15.5538 9.19232C15.5514 9.45361 15.6328 9.49169 15.8647 9.48976C17.1537 9.47867 18.4427 9.48735 19.7317 9.48108C19.9088 9.48012 19.9896 9.50615 19.9843 9.71441C19.9795 9.90579 19.9463 9.9781 19.7346 9.97665C18.2594 9.96701 16.7837 9.96653 15.3085 9.97713C15.0963 9.97858 15.0616 9.91302 15.0636 9.71923C15.0741 8.72761 15.0688 7.73696 15.0688 6.74582Z" fill="white"/>
<path d="M26.7817 9.95187C27.8985 7.82209 29.0114 5.69955 30.1503 3.52734C31.2839 5.69376 32.3968 7.82017 33.5314 9.98755C33.3462 9.98755 33.197 9.98224 33.0483 9.98899C32.9016 9.99574 32.8862 9.87089 32.8414 9.78556C31.9705 8.13737 31.103 6.48725 30.234 4.83761C30.2157 4.80193 30.1946 4.76771 30.1638 4.71468C30.006 4.89545 29.928 5.10756 29.8255 5.30232C29.0855 6.70851 28.3383 8.11085 27.6262 9.53103C27.4395 9.90511 27.2321 10.0965 26.7817 9.95187Z" fill="white"/>
<path d="M5.99348 3.57158C5.93863 3.62943 5.88426 3.68872 5.82796 3.74513C4.58321 4.98983 3.34087 6.23694 2.08842 7.47441C1.9383 7.62289 1.95947 7.68941 2.09612 7.82536C3.25955 8.97943 4.41432 10.1422 5.57295 11.3011C5.62924 11.3575 5.69709 11.4033 5.7452 11.4775C5.41609 11.5214 5.13125 11.5672 4.85121 11.2775C3.71809 10.1055 2.55754 8.95918 1.39988 7.81138C1.2642 7.67688 1.26708 7.61035 1.40085 7.4773C2.68024 6.21043 3.9553 4.93825 5.22363 3.6598C5.4594 3.42262 5.72547 3.58363 5.99348 3.57158Z" fill="white"/>
<path d="M0.50089 6.80378C0.50089 7.79443 0.49271 8.78556 0.507145 9.77573C0.510513 9.99845 0.410914 9.9946 0.249246 9.99942C0.0726615 10.0042 7.03337e-06 9.97242 0.000969344 9.76754C0.00963014 7.76985 0.0105924 5.77215 7.0113e-06 3.77446C-0.0009553 3.54981 0.0972005 3.55608 0.257906 3.55126C0.433047 3.54644 0.509551 3.57488 0.507145 3.78313C0.493673 4.79018 0.50089 5.79722 0.50089 6.80378Z" fill="white"/>
<path d="M18.1143 8.14714C17.5633 8.14714 17.0119 8.1375 16.462 8.15245C16.2608 8.15775 16.282 8.04736 16.2892 7.92539C16.2964 7.81018 16.2267 7.66459 16.4567 7.66652C17.5585 7.67568 18.6599 7.67665 19.7617 7.66508C19.9783 7.66267 19.9494 7.78029 19.9465 7.90997C19.9441 8.03289 19.9879 8.16064 19.7665 8.15341C19.2161 8.13509 18.6652 8.14714 18.1143 8.14714Z" fill="white"/>
<path d="M9.82218 11.5183C9.51905 11.513 9.28809 11.2768 9.28857 10.9736C9.28954 10.6617 9.53589 10.4211 9.8472 10.4279C10.147 10.4346 10.3827 10.6761 10.3818 10.9745C10.3808 11.2879 10.1378 11.5236 9.82218 11.5183Z" fill="#930000"/>
<path d="M11.3358 11.5177C11.0317 11.5177 10.7949 11.2878 10.7887 10.9865C10.7824 10.6775 11.0254 10.4292 11.3358 10.4277C11.6504 10.4263 11.8809 10.6644 11.8751 10.986C11.8699 11.2974 11.6461 11.5177 11.3358 11.5177Z" fill="#930000"/>
<path d="M13.9292 3.9403C13.2383 5.26358 12.5454 6.58493 11.853 7.90725C11.6865 8.22445 11.5181 8.54165 11.3343 8.8897C11.1876 8.61685 11.0668 8.37919 10.9326 8.14876C10.8714 8.04367 10.8806 7.9622 10.9354 7.85711C11.6153 6.56517 12.2846 5.26695 12.9698 3.9779C13.2301 3.48812 13.3321 2.97906 13.2772 2.43046C13.1685 1.35063 12.4164 0.437589 11.3617 0.113639C10.3412 -0.199706 9.1797 0.150276 8.50368 0.974614C7.79686 1.83607 7.67224 2.99786 8.17986 3.9644C8.85925 5.25683 9.53768 6.54974 10.2161 7.84217C10.2609 7.92749 10.3119 8.0027 10.2503 8.11068C10.1098 8.35653 9.98275 8.6101 9.85092 8.85885C9.78115 8.82655 9.76671 8.7687 9.74073 8.71953C8.90689 7.13256 8.07208 5.54559 7.2392 3.95766C7.01546 3.53151 7.01739 3.53006 6.47705 3.57152C7.59959 5.71142 8.70769 7.82337 9.83311 9.96905C10.091 9.47975 10.3263 9.03095 10.5818 8.54599C10.8407 9.03336 11.0798 9.48361 11.3338 9.96279C12.4612 7.8089 13.5659 5.69841 14.6745 3.58068C14.1491 3.51271 14.152 3.51415 13.9292 3.9403ZM10.5808 8.00655C10.3422 7.54666 10.1199 7.1181 9.89903 6.68954C9.39719 5.71672 8.88283 4.75114 8.39927 3.76965C7.95709 2.87156 8.05236 1.99419 8.66198 1.21083C9.2846 0.410593 10.13 0.102069 11.1212 0.328159C12.1123 0.55425 12.7282 1.20263 12.9703 2.18557C13.1103 2.75586 13.0203 3.30735 12.7441 3.83521C12.0638 5.13487 11.3978 6.44224 10.7252 7.74623C10.6852 7.8224 10.6415 7.89712 10.5808 8.00655Z" fill="#930000"/>
<path d="M10.5862 1.37305C9.88511 1.37064 9.31734 1.93274 9.31301 2.63463C9.30868 3.34038 9.86153 3.90922 10.5621 3.91934C11.2612 3.92946 11.8396 3.36737 11.8458 2.6703C11.853 1.95154 11.2935 1.37498 10.5862 1.37305ZM10.5727 3.65179C10.029 3.64842 9.56947 3.17888 9.57669 2.63415C9.5839 2.09375 10.0309 1.65362 10.5746 1.65073C11.1347 1.64832 11.5778 2.08893 11.5769 2.64764C11.5764 3.20202 11.1217 3.65565 10.5727 3.65179Z" fill="#930000"/>
</svg>
